<?xml version="1.0" encoding="UTF-8"?>
<!DOCTYPE svg PUBLIC "-//W3C//DTD SVG 1.1//EN" "http://www.w3.org/Graphics/SVG/1.1/DTD/svg11.dtd">
<!-- Creator: CorelDRAW 2021 (64 Bit) -->
<svg xmlns="http://www.w3.org/2000/svg" xml:space="preserve" width="180.622mm" height="180.622mm" version="1.1" style="shape-rendering:geometricPrecision; text-rendering:geometricPrecision; image-rendering:optimizeQuality; fill-rule:evenodd; clip-rule:evenodd"
viewBox="0 0 18062.22 18062.22"
 xmlns:xlink="http://www.w3.org/1999/xlink"
 xmlns:xodm="http://www.corel.com/coreldraw/odm/2003">
 <defs>
  <style type="text/css">
   <![CDATA[
    .fil0 {fill:none}
    .fil1 {fill:#4D4D4D}
    .fil6 {fill:#666666}
    .fil3 {fill:#E6E6E6}
    .fil2 {fill:#E6E6E6}
    .fil4 {fill:white}
    .fil5 {fill:#4D4D4D;fill-rule:nonzero}
   ]]>
  </style>
 </defs>
 <g id="icone_x0020_Altomato">
  <metadata id="CorelCorpID_0Corel-Layer"/>
  <rect class="fil0" width="18062.22" height="18062.22"/>
  <g id="Preferencial">
   <path class="fil1" d="M9018.28 5055.95c4463.55,0 8081.96,3300.58 8081.96,7372.06 0,4071.47 -3618.41,4150.67 -8081.96,4150.67 -4463.56,0 -8081.97,-79.2 -8081.97,-4150.67 0,-4071.48 3618.41,-7372.06 8081.97,-7372.06z"/>
   <g>
    <g>
     <polygon class="fil1" points="4122,4661.12 4645.05,4314.71 6108.99,7618.65 5585.95,7965.06 "/>
     <polygon class="fil1" points="4243.22,4661.12 4766.27,4314.71 6230.21,7618.65 5707.17,7965.06 "/>
     <polygon class="fil2" points="4194.58,4691.89 4717.63,4345.48 6181.57,7649.42 5658.54,7995.83 "/>
    </g>
    <path class="fil1" d="M4054.7 3612.76c337.02,-223.2 758.23,-70.12 940.8,341.9 182.57,412.04 57.36,927 -279.65,1150.22 -337.02,223.2 -758.21,70.12 -940.78,-341.9 -182.57,-412.04 -57.38,-927 279.63,-1150.22z"/>
   </g>
   <g>
    <g>
     <polygon class="fil1" points="13745.39,4661.12 13222.33,4314.71 11758.4,7618.65 12281.43,7965.06 "/>
     <polygon class="fil1" points="13624.17,4661.12 13101.11,4314.71 11637.18,7618.65 12160.21,7965.06 "/>
     <polygon class="fil2" points="13672.8,4691.89 13149.75,4345.48 11685.81,7649.42 12208.85,7995.83 "/>
    </g>
    <path class="fil1" d="M13812.68 3612.76c-337.01,-223.2 -758.23,-70.12 -940.8,341.9 -182.56,412.04 -57.36,927 279.66,1150.22 337.01,223.2 758.21,70.12 940.78,-341.9 182.57,-412.04 57.38,-927 -279.64,-1150.22z"/>
   </g>
   <path class="fil3" d="M8970.5 5146.86c4366.73,0 7906.66,3228.99 7906.66,7212.15 0,3983.16 -3539.93,4060.64 -7906.66,4060.64 -4366.73,0 -7906.66,-77.48 -7906.66,-4060.64 0,-3983.16 3539.93,-7212.15 7906.66,-7212.15z"/>
   <path class="fil1" d="M8970.5 6436.75c3585.34,0 6491.83,2651.18 6491.83,5921.59 0,2522.54 -1729.4,3137.09 -4165.53,3286.32 -576.15,-490.93 -1349.67,-791.56 -2200.31,-791.56 -858.2,0 -1638,305.94 -2215.73,804.65 -2560.07,-124.71 -4402.09,-695.9 -4402.09,-3299.41 0,-3270.41 2906.49,-5921.59 6491.83,-5921.59z"/>
   <path class="fil4" d="M8965.33 7103.74c3268.77,0 5918.62,2417.09 5918.62,5398.73 0,2299.81 -1576.7,2860.1 -3797.72,2996.15 -525.28,-447.59 -1230.51,-721.67 -2006.04,-721.67 -782.42,0 -1493.37,278.92 -2020.08,733.6 -2334.02,-113.7 -4013.4,-634.45 -4013.4,-3008.08 0,-2981.64 2649.85,-5398.73 5918.62,-5398.73z"/>
   <g>
    <g>
     <path class="fil1" d="M6010.77 9075.43c552.28,0 1000,447.72 1000,1000 0,552.27 -447.72,999.99 -1000,999.99 -552.28,0 -1000,-447.72 -1000,-999.99 0,-552.28 447.72,-1000 1000,-1000z"/>
     <path class="fil1" d="M11919.9 9075.43c552.28,0 1000,447.72 1000,1000 0,552.27 -447.72,999.99 -1000,999.99 -552.27,0 -1000,-447.72 -1000,-999.99 0,-552.28 447.73,-1000 1000,-1000z"/>
    </g>
    <path class="fil5" d="M8959.41 12761.37c80.53,-98.05 149.49,-203.48 238.86,-287.02 361.15,-337.68 986.97,-349.84 1367.1,89.25 124,143.22 230.86,301.45 343.32,454.43 103.4,140.67 208.51,279.35 352.01,382.57 176.52,126.87 368.26,181.22 583.11,116.93 127.36,-38.14 222.86,-113.64 278.52,-237.26 12.81,-28.37 29.78,-58.99 53.58,-76.86 16.76,-12.6 53.34,-14.3 71.67,-4.05 13.33,7.45 15.37,42.5 14.75,65.01 -0.42,16.24 -11.89,33.15 -21.27,48.01 -344.08,546.67 -835.23,874.37 -1471.19,983.82 -93.97,16.14 -189.71,29.2 -284.82,30.8 -520.73,8.75 -982.89,-157.5 -1391.98,-476.68 -137.99,-107.69 -109.14,-108.9 -250.76,1.29 -322.23,250.59 -681.8,414.7 -1090.65,456.89 -130.02,13.4 -263.14,28.26 -392.05,15.1 -713.97,-72.95 -1279.2,-397.04 -1664.78,-1012.88 -36.09,-57.64 -34.57,-100.24 -0.86,-118.05 33.38,-17.66 81.71,1.04 102.45,51.3 59.85,144.99 162.2,238.68 313.81,279 170.65,45.41 330.81,17.11 482.59,-68.72 171.35,-96.92 294.52,-243.4 408.06,-399.33 95.11,-130.68 186.13,-264.42 284.33,-392.71 145.75,-190.47 324.1,-340.41 562.01,-400.61 449.9,-113.74 879.01,77.31 1090.85,462.89 8.32,15.11 17.28,29.89 21.34,36.88z"/>
   </g>
   <g>
    <path class="fil1" d="M9061.42 15268.13l0.01 0c66.68,0 121.21,54.53 121.21,121.2l0 666.69c0,66.68 -54.53,121.21 -121.21,121.21l-0.01 0c-66.68,0 -121.21,-54.53 -121.21,-121.21l0 -666.69c0,-66.67 54.53,-121.2 121.21,-121.2z"/>
    <path class="fil1" d="M8606.86 15419.63l0.01 0c66.68,0 121.21,54.53 121.21,121.21l0 363.68c0,66.67 -54.53,121.2 -121.21,121.2l-0.01 0c-66.68,0 -121.21,-54.53 -121.21,-121.2l0 -363.68c0,-66.68 54.53,-121.21 121.21,-121.21z"/>
    <path class="fil1" d="M8182.62 15540.86l0.02 0c66.67,0 121.2,54.52 121.2,121.2l0 121.22c0,66.67 -54.53,121.2 -121.2,121.2l-0.02 0c-66.68,0 -121.2,-54.53 -121.2,-121.2l0 -121.22c0,-66.68 54.52,-121.2 121.2,-121.2z"/>
    <path class="fil1" d="M9515.96 15419.63l-0.02 0c-66.67,0 -121.2,54.53 -121.2,121.21l0 363.68c0,66.67 54.53,121.2 121.2,121.2l0.02 0c66.67,0 121.2,-54.53 121.2,-121.2l0 -363.68c0,-66.68 -54.53,-121.21 -121.2,-121.21z"/>
    <path class="fil1" d="M9940.19 15540.86l-0.01 0c-66.68,0 -121.21,54.52 -121.21,121.2l0 121.22c0,66.67 54.53,121.2 121.21,121.2l0.01 0c66.68,0 121.21,-54.53 121.21,-121.2l0 -121.22c0,-66.68 -54.53,-121.2 -121.21,-121.2z"/>
   </g>
   <g>
    <path class="fil1" d="M8389.81 1484.93l3553.29 502.11c76.98,10.88 131.04,82.74 120.17,159.72l-411.1 2909.19 -3833.18 -541.66 411.1 -2909.19c10.87,-76.98 82.73,-131.04 159.72,-120.17z"/>
    <path class="fil1" d="M6624 4482.06l6153.16 869.48c48.22,6.82 82.1,51.85 75.28,100.08l-38.3 271.01 -6328.5 -894.26 38.29 -271.03c6.82,-48.22 51.85,-82.1 100.07,-75.28z"/>
   </g>
   <path class="fil6" d="M17000.04 10531.02l273.71 0c299.91,0 545.29,245.37 545.29,545.28l0 1828.36c0,299.9 -245.38,545.28 -545.29,545.28l-90.54 0c59.32,-309.2 90.37,-648.64 90.37,-1021.94 0,-655.92 -95.42,-1291.66 -273.54,-1896.98z"/>
   <path class="fil6" d="M17000.04 10531.02l273.71 0c299.91,0 545.29,245.37 545.29,545.28l0 1828.36c0,299.9 -245.38,545.28 -545.29,545.28l-90.54 0c59.32,-309.2 90.37,-648.64 90.37,-1021.94 0,-655.92 -95.42,-1291.66 -273.54,-1896.98z"/>
   <path class="fil6" d="M1062.18 10531.02l-273.71 0c-299.91,0 -545.29,245.37 -545.29,545.28l0 1828.36c0,299.9 245.38,545.28 545.29,545.28l90.54 0c-59.32,-309.2 -90.37,-648.64 -90.37,-1021.94 0,-655.92 95.42,-1291.66 273.54,-1896.98z"/>
  </g>
 </g>
</svg>
