<?xml version="1.0" encoding="utf-8"?>
<!-- Generator: Adobe Illustrator 25.2.0, SVG Export Plug-In . SVG Version: 6.00 Build 0)  -->
<svg version="1.1" id="Camada_1" xmlns="http://www.w3.org/2000/svg" xmlns:xlink="http://www.w3.org/1999/xlink" x="0px" y="0px"
	 viewBox="0 0 245.76 245.76" style="enable-background:new 0 0 245.76 245.76;" xml:space="preserve">
<style type="text/css">
	.st0{fill-rule:evenodd;clip-rule:evenodd;fill:#FEFEFE;}
	.st1{fill-rule:evenodd;clip-rule:evenodd;fill:#101924;}
</style>
<g>
	<rect x="89.26" y="73.72" class="st0" width="64.73" height="128.15"/>
	<path class="st1" d="M119.32,162.57c9.87-2.5,18.41,5.17,19.86,12.95c1.83,9.77-5.01,17.7-12.88,19.31
		c-9.95,2.04-18.08-4.97-19.7-12.7C104.44,171.86,111.57,164.53,119.32,162.57L119.32,162.57z M115.14,151.97
		c-1.4-15.44-3.94-29.91-6.65-44.91c-1.22-6.75-3.56-15.18-0.81-21.61c2.35-5.49,7.37-10.18,15.21-10.17
		c7.87,0.01,13.17,4.9,15.36,10.44c2.37,5.99,0.2,15.46-0.94,21.91c-2.61,14.75-4.53,29.34-6.51,44.49L115.14,151.97L115.14,151.97z
		 M48.06,222.03l8.75,0l8.86,0l8.75,0l8.86,0l8.75,0l8.86,0l8.75,0l8.86,0l8.75,0l8.86,0l8.75,0l8.86,0l8.75,0l8.86,0l8.75,0l8.86,0
		l8.75,0c11.15-0.01,26.8,1.71,33.64-9.35c6.94-11.22-1.51-23.54-6.38-31.81c-21.03-35.77-42.23-73.36-63.17-109.48
		c-5.4-9.32-10.6-18.03-15.8-27.36c-4.62-8.29-11.14-20.38-23.16-20.38c-6.24,0-11.8,4.05-14.46,7.08
		c-5.13,5.86-19.97,32.73-24.35,40.37C73.6,89.3,62.9,107.22,52.47,125.82l-31.58,54.73c-4.67,7.95-13.38,20.6-6.71,31.86
		C20.9,223.75,36.94,222.03,48.06,222.03z"/>
</g>
</svg>
