<svg id="Camada_1" data-name="Camada 1" xmlns="http://www.w3.org/2000/svg" viewBox="0 0 63.99 75.16"><defs><style>.cls-1,.cls-2{fill:none;}.cls-1{stroke:#fff;stroke-miterlimit:22.93;stroke-width:2px;}.cls-1,.cls-2,.cls-3,.cls-4{fill-rule:evenodd;}.cls-4{fill:#ccc;}</style></defs><path class="cls-1" d="M101.24,67.1C93.84,63.91,83.7,62,76.05,65.3A4.58,4.58,0,0,0,69,69.07v63.12a4.58,4.58,0,0,0,9.15,0v-22.8a31.43,31.43,0,0,1,23.11,3.15c5,2.89,10.89,4.11,17.85,3.88,7.1-.5,11.86-2.61,11.87-6.11,0-13.7-.06-27.44,0-41.14,0-2.48-2.23-3.35-4.53-2C116,72.71,106.92,68.9,101.24,67.1Z" transform="translate(-67.95 -62.56)"/><path class="cls-2" d="M101.24,67.1C93.84,63.91,83.7,62,76.05,65.3A4.58,4.58,0,0,0,69,69.07v63.12a4.58,4.58,0,0,0,9.15,0v-22.8a31.43,31.43,0,0,1,23.11,3.15c5,2.89,10.89,4.11,17.85,3.88,7.1-.5,11.86-2.61,11.87-6.11,0-13.7-.06-27.44,0-41.14,0-2.48-2.23-3.35-4.53-2C116,72.71,106.92,68.9,101.24,67.1Z" transform="translate(-67.95 -62.56)"/><path class="cls-3" d="M101.82,90l-.61-23C96,64.68,88.9,62,78.13,64.4c-3.43,1-6.65,2.93-6.65,6.65V90C75.44,90,88.21,90,101.82,90Z" transform="translate(-67.95 -62.56)"/><path class="cls-4" d="M130.9,90c.15-6.72,0-14,0-20.91.05-2.5-2.23-3.38-4.53-2C116,72.63,106.9,68.78,101.21,67l0,23Z" transform="translate(-67.95 -62.56)"/><path class="cls-4" d="M71.42,112.81c5.67-4.43,18.19-6.45,29.76,0,0-7.62,0-15.26,0-22.88l-23.49,0H75.58l-2,0-2.1.1C71.48,93.8,71.4,109.52,71.42,112.81Z" transform="translate(-67.95 -62.56)"/><path class="cls-3" d="M101.18,112.84c5,2.92,10.89,4.15,17.86,3.92,7.1-.5,11.85-2.64,11.87-6.16V90H101.2v20.64Z" transform="translate(-67.95 -62.56)"/><path class="cls-3" d="M73.5,64.38h0A4.58,4.58,0,0,1,78.07,69v63.74a4.58,4.58,0,0,1-4.57,4.57h0a4.59,4.59,0,0,1-4.57-4.57V69A4.59,4.59,0,0,1,73.5,64.38Z" transform="translate(-67.95 -62.56)"/></svg>